<?xml version="1.0" encoding="UTF-8" standalone="no"?>
<svg
   width="512"
   height="512"
   version="1.1"
   id="svg20"
   sodipodi:docname="Icon.svg"
   inkscape:version="1.2.2 (b0a8486541, 2022-12-01)"
   xmlns:inkscape="http://www.inkscape.org/namespaces/inkscape"
   xmlns:sodipodi="http://sodipodi.sourceforge.net/DTD/sodipodi-0.dtd"
   xmlns="http://www.w3.org/2000/svg"
   xmlns:svg="http://www.w3.org/2000/svg">
  <defs
     id="defs6" />
  <sodipodi:namedview
     id="namedview4"
     pagecolor="#505050"
     bordercolor="#ffffff"
     borderopacity="1"
     inkscape:pageshadow="0"
     inkscape:pageopacity="0"
     inkscape:pagecheckerboard="1"
     showgrid="true"
     inkscape:zoom="1.2305315"
     inkscape:cx="314.49824"
     inkscape:cy="354.72475"
     inkscape:window-width="1920"
     inkscape:window-height="1080"
     inkscape:window-x="1920"
     inkscape:window-y="0"
     inkscape:window-maximized="1"
     inkscape:current-layer="svg20"
     inkscape:showpageshadow="0"
     inkscape:deskcolor="#505050">
    <inkscape:grid
       type="xygrid"
       id="grid847"
       spacingx="16"
       spacingy="16"
       empspacing="4"
       empcolor="#ff3f3f"
       empopacity="0.25098039"
       color="#0098ff"
       opacity="0.44705882" />
  </sodipodi:namedview>
  <path
     sodipodi:type="star"
     style="opacity:1;fill:#ffffff;stroke-width:2.4;stroke-linecap:square;stroke-linejoin:round;paint-order:stroke fill markers;fill-opacity:0.2"
     id="path1306"
     inkscape:flatsided="false"
     sodipodi:sides="8"
     sodipodi:cx="256"
     sodipodi:cy="256"
     sodipodi:r1="224"
     sodipodi:r2="127.67995"
     sodipodi:arg1="-1.5707963"
     sodipodi:arg2="-1.1780972"
     inkscape:rounded="0.15"
     inkscape:randomized="0"
     d="m 256.00001,32 c 17.51322,10e-7 32.68089,99.33709 48.861,106.03911 16.1801,6.70202 97.14719,-52.814745 109.53091,-40.431025 C 426.77564,109.99181 367.25887,190.95889 373.96089,207.139 380.66291,223.31911 480,238.48678 480,256.00001 c 0,17.51322 -99.33709,32.68089 -106.03911,48.861 -6.70202,16.1801 52.81474,97.14719 40.43102,109.53091 C 402.00819,426.77564 321.04111,367.25887 304.861,373.96089 288.68089,380.66291 273.51322,480 255.99999,480 238.48677,480 223.3191,380.66291 207.13899,373.96089 190.95889,367.25887 109.9918,426.77563 97.608077,414.39191 85.224357,402.00819 144.74113,321.04111 138.03911,304.861 131.33709,288.68089 31.999999,273.51322 32,255.99999 c 10e-7,-17.51322 99.33709,-32.68089 106.03911,-48.861 C 144.74113,190.95889 85.224365,109.9918 97.608085,97.608077 109.99181,85.224357 190.95889,144.74113 207.139,138.03911 223.31911,131.33709 238.48678,31.999999 256.00001,32 Z"
     inkscape:transform-center-y="-47.265303"
     transform="translate(-5.7930084e-6,-16)" />
  <g
     id="g386"
     transform="matrix(0.16875361,0,0,-0.16875361,-251.20965,557.8089)">
    <path
       d="m 2805.47,623.69 c 67.72,-6.17 138.14,-2.46 206.16,-1.97 66.88,0.49 134.59,-1.51 201.34,1.9 -2.34,-6.78 -4.87,-13.5 -7.58,-20.15 -21.96,-54.21 -61.62,-92.32 -115.6,-114.78 -59.05,-24.58 -124.67,-23.12 -183.44,1.34 -62.7,26.09 -97.57,72.6 -122.62,133.11 l 21.74,0.55"
       style="fill:#01043b;fill-opacity:1;fill-rule:nonzero;stroke:none;stroke-width:0.1"
       id="path16" />
    <path
       d="m 2632.06,1094.62 c 25.48,7.67 720.46,6.93 735.62,1.36 11.11,-12.56 18.13,-22.96 17.14,-40.48 -0.46,-7.96 -4.08,-14.31 -10.08,-19.42 -6.07,-5.14 -12.7,-7.01 -20.38,-7.79 -46.41,-4.73 -96.99,-0.65 -143.84,-0.63 l -300.66,0.11 c -41.57,-0.01 -86.58,3.22 -127.73,-1.55 -48.52,2.83 -100.29,-5.97 -147.98,4.06 -1.08,1.31 -2.14,2.64 -3.28,3.9 -7.23,7.97 -14.9,16.55 -15.44,28.03 -0.61,13.09 8.67,23.22 16.63,32.41"
       style="fill:#fbfbf9;fill-opacity:1;fill-rule:nonzero;stroke:none;stroke-width:0.1"
       id="path18" />
    <path
       d="m 2633.04,946.75 c -2.4,18 -8.31,68.89 1.11,83.53 47.69,-10.03 99.46,-1.23 147.98,-4.06 77.58,-6.65 159.7,-1.25 237.75,-1.09 115.38,0.24 231.38,-2.75 346.68,0.54 0.49,-26.51 2.54,-53.92 1.15,-80.34 9,-10.26 17.84,-20.56 16.39,-35.3 -1.22,-12.08 -10.68,-22.85 -19.81,-30.22 l -4.32,-1.56 c -65.48,2.89 -131.77,0.92 -197.33,0.9 L 2806.66,879 c -35.96,-0.01 -147.35,-5.49 -176.22,3.12 -6.73,8.87 -13.69,18.04 -14.82,29.52 -1.44,14.61 8.58,24.99 17.42,35.11"
       style="fill:#05305d;fill-opacity:1;fill-rule:nonzero;stroke:none;stroke-width:0.1"
       id="path20" />
    <path
       d="m 2633.04,946.75 c 26.6,5.09 56.87,2.36 83.94,2.37 l 149.97,-0.07 c 157.03,0.02 315.48,4.66 472.35,0.09 9.75,-0.28 19.12,-0.69 28.41,-3.81 9,-10.26 17.84,-20.56 16.39,-35.3 -1.22,-12.08 -10.68,-22.85 -19.81,-30.22 l -4.32,-1.56 c -65.48,2.89 -131.77,0.92 -197.33,0.9 L 2806.66,879 c -35.96,-0.01 -147.35,-5.49 -176.22,3.12 -6.73,8.87 -13.69,18.04 -14.82,29.52 -1.44,14.61 8.58,24.99 17.42,35.11"
       style="fill:#fbfbf9;fill-opacity:1;fill-rule:nonzero;stroke:none;stroke-width:0.1"
       id="path22" />
    <path
       d="m 2630.44,882.12 c 28.87,-8.61 140.26,-3.13 176.22,-3.12 l 355.98,0.15 c 65.56,0.02 131.85,1.99 197.33,-0.9 l 4.32,1.56 c 6.82,-25.32 4.28,-131.35 0.23,-160.21 -2.18,-15.6 -6.5,-30.86 -14.21,-44.65 -13.39,-23.9 -39.53,-37.34 -65.12,-44.29 -24.86,-6.76 -47.48,-3.65 -72.22,-7.04 -66.75,-3.41 -134.46,-1.41 -201.34,-1.9 -68.02,-0.49 -138.44,-4.2 -206.16,1.97 l -21.74,-0.55 c -9.17,-0.93 -18.6,-1.11 -27.82,-1.04 -33.94,0.25 -67.81,12.54 -91.52,37.28 -48.76,50.89 -35.06,155.97 -33.95,222.74"
       style="fill:#05305d;fill-opacity:1;fill-rule:nonzero;stroke:none;stroke-width:0.1"
       id="path24" />
    <path
       d="m 2632.06,1094.62 c -2.73,38.53 -4.06,77.89 -11.17,115.89 -42.66,227.92 -208.67,288.05 -321.94,464.94 -186.67,291.53 -160.83,692.03 66.62,953.49 4.6,5.34 9.26,10.63 13.99,15.86 4.73,5.23 9.52,10.4 14.38,15.51 4.85,5.11 9.77,10.16 14.75,15.15 4.98,4.99 10.03,9.92 15.13,14.79 5.1,4.86 10.26,9.66 15.49,14.4 5.22,4.74 10.5,9.41 15.83,14.01 5.34,4.61 10.73,9.15 16.18,13.63 5.45,4.47 10.96,8.87 16.51,13.21 5.56,4.34 11.17,8.61 16.84,12.81 5.66,4.2 11.38,8.32 17.14,12.38 5.77,4.06 11.58,8.04 17.45,11.96 5.86,3.91 11.77,7.75 17.73,11.52 5.96,3.77 11.97,7.46 18.02,11.08 6.05,3.62 12.14,7.16 18.28,10.63 6.14,3.47 12.32,6.86 18.54,10.17 6.22,3.32 12.48,6.56 18.78,9.72 6.31,3.16 12.65,6.24 19.02,9.24 6.38,3 12.8,5.93 19.25,8.78 6.45,2.84 12.93,5.61 19.45,8.29 6.52,2.68 13.07,5.29 19.65,7.81 6.58,2.52 13.2,4.97 19.84,7.33 6.64,2.36 13.32,4.63 20.02,6.82 6.69,2.2 13.42,4.31 20.17,6.34 6.75,2.03 13.53,3.97 20.33,5.83 6.8,1.86 13.62,3.64 20.46,5.33 6.85,1.69 13.71,3.3 20.6,4.82 6.88,1.52 13.78,2.96 20.7,4.31 6.92,1.35 13.85,2.62 20.8,3.8 6.95,1.18 13.92,2.27 20.9,3.28 6.97,1.01 13.96,1.93 20.96,2.76 7,0.84 14.01,1.59 21.03,2.25 7.02,0.66 14.04,1.23 21.07,1.72 220.25,15.1 439.62,-69.54 604.62,-213.79 4.97,-4.42 9.88,-8.9 14.74,-13.44 4.88,-4.55 9.69,-9.15 14.44,-13.81 4.75,-4.66 9.44,-9.37 14.08,-14.14 4.63,-4.77 9.22,-9.6 13.74,-14.49 4.51,-4.88 8.96,-9.82 13.36,-14.81 4.41,-4.99 8.75,-10.03 13.02,-15.13 4.28,-5.1 8.5,-10.24 12.66,-15.44 4.15,-5.2 8.24,-10.45 12.26,-15.75 4.02,-5.29 7.99,-10.64 11.9,-16.03 3.89,-5.39 7.72,-10.83 11.47,-16.32 3.78,-5.49 7.49,-11.02 11.11,-16.59 3.63,-5.58 7.19,-11.2 10.69,-16.86 3.49,-5.66 6.92,-11.36 10.28,-17.11 3.36,-5.74 6.65,-11.53 9.86,-17.35 3.23,-5.83 6.38,-11.69 9.46,-17.59 3.08,-5.9 6.08,-11.84 9,-17.81 2.94,-5.98 5.8,-11.98 8.57,-18.03 2.79,-6.04 5.51,-12.11 8.14,-18.22 2.64,-6.11 5.21,-12.25 7.72,-18.42 2.48,-6.17 4.9,-12.37 7.25,-18.6 2.33,-6.23 4.59,-12.49 6.79,-18.77 2.2,-6.28 4.31,-12.59 6.33,-18.93 2.05,-6.33 4.01,-12.69 5.9,-19.07 1.87,-6.39 3.67,-12.79 5.41,-19.22 1.74,-6.42 3.38,-12.87 4.94,-19.34 1.59,-6.46 3.08,-12.95 4.49,-19.45 1.43,-6.5 2.77,-13.02 4.02,-19.55 1.25,-6.54 2.43,-13.09 3.53,-19.65 1.1,-6.56 2.12,-13.14 3.06,-19.73 0.95,-6.58 1.81,-13.18 2.57,-19.79 0.8,-6.61 1.5,-13.23 2.11,-19.85 0.62,-6.63 1.16,-13.26 1.62,-19.9 13.65,-215.27 -66.49,-410.5 -208.02,-570.2 -29.11,-32.85 -62.01,-61.98 -91.75,-94.2 -75.3,-81.61 -142.55,-184.85 -160.85,-296.23 -5.14,-31.4 -5.24,-63.15 -5.7,-94.89 -15.16,5.57 -710.14,6.31 -735.62,-1.36"
       style="fill:#05305d;fill-opacity:1;fill-rule:nonzero;stroke:none;stroke-width:0.1"
       id="path26" />
    <path
       d="m 2269.5,1924.72 c 72.21,0.27 144.6,1.52 216.79,0.58 11.83,-55.56 36.65,-111.9 63.3,-161.86 9.63,-18.05 39.22,-58.4 42.67,-75.7 -42.76,-0.64 -85.53,-0.87 -128.3,-0.68 -26.78,0.01 -58.81,2.76 -84.99,-2.8 -50.29,59.08 -87.65,165.86 -109.47,240.46"
       style="fill:#38b947;fill-opacity:1;fill-rule:nonzero;stroke:none;stroke-width:0.1"
       id="path28" />
    <path
       d="m 2247.59,2168.42 c 38.46,0.99 182.86,9.19 212.9,0.91 0.38,-53.76 -0.15,-107.87 8.22,-161.14 4.26,-27.12 15.62,-55.99 17.58,-82.89 -72.19,0.94 -144.58,-0.31 -216.79,-0.58 -18.82,81.55 -26.09,160.28 -21.91,243.7"
       style="fill:#fdf167;fill-opacity:1;fill-rule:nonzero;stroke:none;stroke-width:0.1"
       id="path30" />
    <path
       d="m 3002.77,2854.1 c 160.4,-2.16 309.23,-52.85 440.54,-144.38 25.12,-17.5 58.05,-38.76 77.64,-62.43 1.68,-2.05 2.24,-4.01 3.03,-6.49 l -521.87,-0.07 0.66,213.37"
       style="fill:#f11412;fill-opacity:1;fill-rule:nonzero;stroke:none;stroke-width:0.1"
       id="path32" />
    <path
       d="m 2472.67,2642.14 c 4.41,4.2 8.88,8.35 13.39,12.44 4.51,4.1 9.07,8.14 13.68,12.13 4.61,3.98 9.27,7.91 13.97,11.79 4.7,3.88 9.45,7.69 14.24,11.46 4.79,3.76 9.63,7.46 14.51,11.11 4.88,3.65 9.8,7.24 14.77,10.77 4.97,3.53 9.97,7 15.02,10.41 5.05,3.41 10.14,6.76 15.27,10.06 5.13,3.29 10.29,6.52 15.5,9.68 5.2,3.17 10.44,6.28 15.72,9.32 5.28,3.04 10.6,6.02 15.95,8.94 5.35,2.92 10.73,5.77 16.15,8.56 5.41,2.79 10.86,5.51 16.34,8.17 5.49,2.66 11,5.25 16.54,7.78 5.55,2.53 11.12,4.99 16.72,7.39 5.6,2.4 11.23,4.73 16.89,6.99 5.66,2.26 11.34,4.45 17.05,6.58 5.71,2.13 11.45,4.19 17.2,6.18 5.76,1.99 11.54,3.91 17.35,5.76 5.8,1.86 11.63,3.64 17.47,5.36 5.85,1.71 11.72,3.36 17.6,4.93 5.89,1.58 11.79,3.08 17.71,4.51 5.92,1.44 11.86,2.8 17.82,4.1 5.95,1.29 11.92,2.52 17.9,3.67 5.98,1.15 11.98,2.23 17.99,3.24 6.01,1.01 12.03,1.95 18.06,2.81 6.03,0.87 12.07,1.66 18.12,2.39 6.05,0.72 12.1,1.37 18.17,1.95 6.07,0.58 12.14,1.09 18.21,1.52 6.08,0.43 12.16,0.8 18.25,1.09 6.08,0.29 12.17,0.5 18.26,0.65 6.09,0.14 12.19,0.22 18.28,0.22 l -0.66,-213.37 -2.17,-0.56 c -175.7,0.85 -351.62,-0.94 -527.27,1.97"
       style="fill:#fb3c3a;fill-opacity:1;fill-rule:nonzero;stroke:none;stroke-width:0.1"
       id="path34" />
    <path
       d="m 3003.5,1432.9 390.52,0.2 c -0.13,-17.98 -35.34,-65.36 -44.87,-84.67 -25.58,-51.83 -38.34,-111.87 -51.72,-167.86 l -292.49,0.35 -1.44,251.98"
       style="fill:#01548c;fill-opacity:1;fill-rule:nonzero;stroke:none;stroke-width:0.1"
       id="path36" />
    <path
       d="m 2823.58,1433.2 5.79,-0.45 174.13,0.15 1.44,-251.98 -85.82,-0.05 -222.7,0.36 c -9.3,92.96 -42.9,172.02 -89.16,251.87 72.06,-0.02 144.28,-1 216.32,0.1"
       style="fill:#a16dd9;fill-opacity:1;fill-rule:nonzero;stroke:none;stroke-width:0.1"
       id="path38" />
    <path
       d="m 2829.37,1432.75 174.13,0.15 1.44,-251.98 -85.82,-0.05 c -9.9,48.55 -16.58,97.65 -35.27,143.94 -9.39,23.24 -55.56,89.15 -54.48,107.94"
       style="fill:#9c55d7;fill-opacity:1;fill-rule:nonzero;stroke:none;stroke-width:0.1"
       id="path40" />
    <path
       d="m 3002.8,1686.97 c 67.04,-1.04 596.8,6.02 612.07,-1.61 -4.75,-27.92 -146.34,-161.4 -173.38,-194.64 -11.8,-14.53 -29.93,-46 -44.93,-56.02 -0.82,-0.56 -1.68,-1.07 -2.54,-1.6 l -390.52,-0.2 c -1.49,84.28 1.54,168.6 -1.02,252.9 l 0.32,1.17"
       style="fill:#09a0e7;fill-opacity:1;fill-rule:nonzero;stroke:none;stroke-width:0.1"
       id="path42" />
    <path
       d="m 2592.26,1687.74 4.1,-0.93 266.71,-0.08 c 45.9,-0.05 93.69,2.26 139.41,-0.93 2.56,-84.3 -0.47,-168.62 1.02,-252.9 l -174.13,-0.15 -5.79,0.45 c -72.04,-1.1 -144.26,-0.12 -216.32,-0.1 -42.61,59.86 -95.55,102.94 -146.71,154.44 -29.78,29.98 -56.34,62.88 -81.58,96.72 26.18,5.56 58.21,2.81 84.99,2.8 42.77,-0.19 85.54,0.04 128.3,0.68"
       style="fill:#31c7ee;fill-opacity:1;fill-rule:nonzero;stroke:none;stroke-width:0.1"
       id="path44" />
    <path
       d="m 2472.67,2642.14 c 175.65,-2.91 351.57,-1.12 527.27,-1.97 l 2.17,0.56 521.87,0.07 c 47.77,-25.1 148.05,-170 164.6,-221.28 0.86,-2.65 1.29,-4.7 1.62,-7.48 l 1.65,-3.71 c -61.92,2.4 -124.62,0.14 -186.63,0.26 -168.3,0.33 -336.8,-1.86 -505.04,0.03 -154.9,1.71 -310.38,2.75 -465.26,1.1 -75.55,-1.16 -151.44,0.63 -227,1.56 39.6,88.93 95.68,162.82 164.75,230.86"
       style="fill:#fc9519;fill-opacity:1;fill-rule:nonzero;stroke:none;stroke-width:0.1"
       id="path46" />
    <path
       d="m 3002.11,2640.73 521.87,0.07 c 47.77,-25.1 148.05,-170 164.6,-221.28 0.86,-2.65 1.29,-4.7 1.62,-7.48 -65.38,-7.24 -163.42,-0.99 -232.09,-0.82 l -457.12,-0.3 c -2.35,76.22 -0.92,152.97 -1.05,229.25 l 2.17,0.56"
       style="fill:#fa6807;fill-opacity:1;fill-rule:nonzero;stroke:none;stroke-width:0.1"
       id="path48" />
    <path
       d="m 2307.92,2411.28 c 75.56,-0.93 151.45,-2.72 227,-1.56 154.88,1.65 310.36,0.61 465.26,-1.1 168.24,-1.89 336.74,0.3 505.04,-0.03 62.01,-0.12 124.71,2.14 186.63,-0.26 25.08,-30.49 70.97,-191.87 64.78,-231.01 -0.53,-3.28 -1.85,-6.36 -3.37,-9.29 19.22,-26.99 3.17,-151.91 -2.47,-185.61 -2.57,-15.19 -5.74,-46.66 -17.04,-56.96 6.72,-20.35 -37.39,-110.9 -47.81,-131.65 -11.17,-22.16 -50.5,-98.91 -71.07,-108.45 -15.27,7.63 -545.03,0.57 -612.07,1.61 l -0.32,-1.17 c -45.72,3.19 -93.51,0.88 -139.41,0.93 l -266.71,0.08 -4.1,0.93 c -3.45,17.3 -33.04,57.65 -42.67,75.7 -26.65,49.96 -51.47,106.3 -63.3,161.86 -1.96,26.9 -13.32,55.77 -17.58,82.89 -8.37,53.27 -7.84,107.38 -8.22,161.14 -30.04,8.28 -174.44,0.08 -212.9,-0.91 7.88,86.19 26.94,163.28 60.33,242.86"
       style="fill:#fce01e;fill-opacity:1;fill-rule:nonzero;stroke:none;stroke-width:0.1"
       id="path50" />
    <path
       d="m 2486.29,1925.3 514.93,-0.02 c 6.85,-78.64 -1.65,-159.29 1.58,-238.31 l -0.32,-1.17 c -45.72,3.19 -93.51,0.88 -139.41,0.93 l -266.71,0.08 -4.1,0.93 c -3.45,17.3 -33.04,57.65 -42.67,75.7 -26.65,49.96 -51.47,106.3 -63.3,161.86"
       style="fill:#50be4a;fill-opacity:1;fill-rule:nonzero;stroke:none;stroke-width:0.1"
       id="path52" />
    <path
       d="m 2534.92,2409.72 c 154.88,1.65 310.36,0.61 465.26,-1.1 6.89,-70.18 -0.57,-164.68 -0.87,-237.78 48.62,-0.87 97.23,-1.04 145.85,-0.53 26.3,0.1 55.27,2.47 81.18,-1.36 -70.79,-5.95 -153.96,-1.78 -225.71,-0.43 -56.21,1.86 -112.85,0.6 -169.1,0.98 l -370.73,1.72 c 2.36,75.81 36.64,173.06 74.12,238.5"
       style="fill:#fdc819;fill-opacity:1;fill-rule:nonzero;stroke:none;stroke-width:0.1"
       id="path54" />
    <path
       d="m 3001.22,1925.28 538.62,-0.15 c 45.39,0.09 157.05,-5.89 193.91,0.33 6.72,-20.35 -37.39,-110.9 -47.81,-131.65 -11.17,-22.16 -50.5,-98.91 -71.07,-108.45 -15.27,7.63 -545.03,0.57 -612.07,1.61 -3.23,79.02 5.27,159.67 -1.58,238.31"
       style="fill:#38b947;fill-opacity:1;fill-rule:nonzero;stroke:none;stroke-width:0.1"
       id="path56" />
    <path
       d="m 3000.18,2408.62 c 168.24,-1.89 336.74,0.3 505.04,-0.03 62.01,-0.12 124.71,2.14 186.63,-0.26 25.08,-30.49 70.97,-191.87 64.78,-231.01 -0.53,-3.28 -1.85,-6.36 -3.37,-9.29 -23.04,6.18 -116.86,1.3 -148.55,1.21 l -378.37,-0.29 c -25.91,3.83 -54.88,1.46 -81.18,1.36 -48.62,-0.51 -97.23,-0.34 -145.85,0.53 0.3,73.1 7.76,167.6 0.87,237.78"
       style="fill:#fbb011;fill-opacity:1;fill-rule:nonzero;stroke:none;stroke-width:0.1"
       id="path58" />
  </g>
</svg>
